<?xml version="1.0" encoding="UTF-8"?>
<svg width="24px" height="24px" viewBox="0 0 24 24" version="1.1" xmlns="http://www.w3.org/2000/svg" xmlns:xlink="http://www.w3.org/1999/xlink">
    <!-- Generator: Sketch 62 (91390) - https://sketch.com -->
    <title>Icons/phone</title>
    <desc>Created with Sketch.</desc>
    <g id="Icons/phone" stroke="none" stroke-width="1" fill="none" fill-rule="evenodd">
        <g id="icons8-android" transform="translate(5.000000, 1.000000)" fill="#151515">
            <path d="M12,0 L2,0 C0.895,0 0,0.895 0,2 L0,20 C0,21.105 0.895,22 2,22 L12,22 C13.105,22 14,21.105 14,20 L14,2 C14,0.895 13.105,0 12,0 Z M8.5,20 L5.5,20 C5.224,20 5,19.776 5,19.5 L5,19.5 C5,19.224 5.224,19 5.5,19 L8.5,19 C8.776,19 9,19.224 9,19.5 L9,19.5 C9,19.776 8.776,20 8.5,20 Z M11.333,17 L2.667,17 C2.298,17 2,16.702 2,16.333 L2,3.667 C2,3.298 2.298,3 2.667,3 L11.334,3 C11.702,3 12,3.298 12,3.667 L12,16.334 C12,16.702 11.702,17 11.333,17 Z" id="Shape"></path>
        </g>
    </g>
</svg>